<?xml version="1.0" encoding="utf-8"?>
<!-- Generator: Adobe Illustrator 25.2.1, SVG Export Plug-In . SVG Version: 6.00 Build 0)  -->
<svg version="1.1" xmlns="http://www.w3.org/2000/svg" xmlns:xlink="http://www.w3.org/1999/xlink" x="0px" y="0px"
	 viewBox="0 0 1000 1000" style="enable-background:new 0 0 1000 1000;" xml:space="preserve">
<style type="text/css">
	.st0{fill:#A7782B;}
	.st1{fill:#2D2515;}
	.st2{fill:#5B3F17;}
	.st3{fill:#DE9E26;}
	.st4{fill:#222017;}
</style>
<g id="Capa_2">
	<g>
		<path class="st0" d="M426.9,577.3l-0.4,3l-2-0.4c-0.3-0.1-0.6-0.2-0.7-0.3s-0.3-0.3-0.3-0.6v-1.7H426.9z M423.5,599v-1.7
			c0-0.3,0.1-0.5,0.3-0.6c0.2-0.1,0.4-0.2,0.7-0.3l2-0.4l0.4,3H423.5z M426.1,599v-21.7h2.5c0.4,0,0.7,0,0.9,0.1
			c0.2,0.1,0.4,0.3,0.7,0.5l12.9,14.5c0-0.3-0.1-0.7-0.1-1c0-0.3,0-0.6,0-0.9v-13.2h4.2V599h-2.4c-0.4,0-0.7,0-0.9-0.2
			c-0.3-0.1-0.5-0.3-0.8-0.6l-12.9-14.4c0,0.3,0.1,0.6,0.1,0.9c0,0.2,0,0.5,0,0.9V599H426.1z M429.6,599l0.4-3l2,0.4
			c0.3,0.1,0.5,0.2,0.7,0.3c0.2,0.1,0.3,0.4,0.3,0.6v1.7H429.6z M443.6,577.3l-0.4,3l-2-0.4c-0.3-0.1-0.6-0.2-0.7-0.3
			s-0.3-0.3-0.3-0.6v-1.7H443.6z M449.7,577.3v1.7c0,0.3-0.1,0.5-0.3,0.6s-0.4,0.2-0.7,0.3l-2,0.4l-0.4-3H449.7z"/>
		<path class="st0" d="M463.9,583.3c1.8,0,3.3,0.3,4.6,1c1.3,0.6,2.3,1.6,3,2.8c0.7,1.2,1.1,2.6,1.1,4.2c0,1.6-0.4,3-1.1,4.2
			c-0.7,1.2-1.7,2.1-3,2.8c-1.3,0.7-2.9,1-4.6,1c-1.8,0-3.3-0.3-4.6-1c-1.3-0.7-2.3-1.6-3.1-2.8c-0.7-1.2-1.1-2.6-1.1-4.2
			c0-1.6,0.4-3,1.1-4.2c0.7-1.2,1.8-2.1,3.1-2.8C460.6,583.7,462.1,583.3,463.9,583.3z M463.9,596.4c1.4,0,2.5-0.4,3.2-1.3
			c0.7-0.9,1-2.1,1-3.8c0-1.1-0.1-2.1-0.4-2.8c-0.3-0.8-0.8-1.3-1.4-1.7c-0.6-0.4-1.4-0.6-2.4-0.6c-1,0-1.8,0.2-2.4,0.6
			c-0.6,0.4-1.1,1-1.4,1.7c-0.3,0.8-0.5,1.7-0.5,2.8c0,1.6,0.3,2.9,1,3.8C461.3,595.9,462.4,596.4,463.9,596.4z"/>
		<path class="st0" d="M493.2,583.6l-0.4,3l-2-0.4c-0.3-0.1-0.6-0.2-0.7-0.3s-0.3-0.3-0.3-0.6v-1.7H493.2z M489.8,604v-1.7
			c0-0.3,0.1-0.5,0.3-0.6s0.4-0.2,0.7-0.3l2-0.4l0.4,3H489.8z M492.3,604v-20.5h2.6c0.6,0,1,0.2,1.1,0.7l0.3,1.4
			c0.7-0.7,1.6-1.3,2.5-1.7c0.9-0.4,2-0.7,3.2-0.7c1.4,0,2.6,0.3,3.5,1c1,0.7,1.7,1.6,2.2,2.8c0.5,1.2,0.8,2.6,0.8,4.1
			c0,1.5-0.3,2.9-0.9,4.1c-0.6,1.2-1.5,2.2-2.6,2.9c-1.1,0.7-2.5,1.1-4.1,1.1c-1,0-1.8-0.1-2.5-0.4c-0.7-0.3-1.3-0.6-1.9-1.1v6.3
			H492.3z M495.8,604l0.4-3l2,0.4c0.3,0.1,0.6,0.2,0.7,0.3s0.3,0.3,0.3,0.6v1.7H495.8z M500,596.4c0.9,0,1.6-0.2,2.3-0.6
			c0.6-0.4,1.1-1,1.4-1.8c0.3-0.8,0.5-1.7,0.5-2.8c0-1.6-0.3-2.8-0.8-3.7c-0.6-0.8-1.5-1.2-2.7-1.2c-0.9,0-1.6,0.2-2.2,0.5
			c-0.6,0.3-1.2,0.8-1.7,1.4v6.9c0.5,0.5,1,0.9,1.6,1.1C498.8,596.3,499.4,596.4,500,596.4z"/>
		<path class="st0" d="M517.3,583.6l-0.4,3l-2-0.4c-0.3-0.1-0.6-0.2-0.7-0.3s-0.3-0.3-0.3-0.6v-1.7H517.3z M513.9,599v-1.7
			c0-0.3,0.1-0.5,0.3-0.6c0.2-0.1,0.4-0.2,0.7-0.3l2-0.4l0.4,3H513.9z M518.7,581.4c-0.7,0-1.4-0.2-1.9-0.7c-0.5-0.5-0.8-1-0.8-1.6
			c0-0.7,0.3-1.2,0.8-1.7s1.2-0.7,1.9-0.7c0.8,0,1.4,0.2,2,0.7s0.8,1,0.8,1.7c0,0.6-0.3,1.2-0.8,1.6
			C520.1,581.2,519.5,581.4,518.7,581.4z M516.5,599v-15.4h4.3V599H516.5z M520,599l0.4-3l2,0.4c0.3,0.1,0.6,0.2,0.7,0.3
			c0.2,0.1,0.3,0.4,0.3,0.6v1.7H520z"/>
		<path class="st0" d="M537,599.2c-1.8,0-3.3-0.3-4.6-1c-1.3-0.7-2.3-1.7-3-2.9s-1.1-2.7-1.1-4.3c0-1.4,0.4-2.7,1.1-3.9
			c0.7-1.2,1.7-2.1,3-2.7c1.3-0.7,2.8-1,4.5-1c1.5,0,2.9,0.3,4,0.9c1.2,0.6,2,1.4,2.7,2.4c0.6,1,0.9,2.3,0.9,3.7
			c0,0.5-0.1,0.9-0.2,1.1c-0.1,0.2-0.4,0.3-0.8,0.3h-10.8c0,0.1,0,0.1,0,0.2c0,0.1,0,0.1,0,0.2c0.2,1.4,0.7,2.5,1.5,3.2s1.9,1,3.2,1
			c0.6,0,1.2-0.1,1.9-0.3c0.6-0.2,1.2-0.4,1.7-0.7s1-0.3,1.3-0.3s0.6,0.1,0.8,0.3l1.3,1.4c-0.6,0.6-1.3,1.1-2.1,1.5
			s-1.7,0.6-2.5,0.8S537.9,599.2,537,599.2z M532.7,589.5h7.9c0-1-0.3-1.8-0.9-2.5c-0.6-0.7-1.5-1-2.8-1s-2.2,0.3-2.9,0.9
			C533.3,587.5,532.9,588.4,532.7,589.5z"/>
		<path class="st0" d="M553.1,583.6l-0.4,3l-2-0.4c-0.3-0.1-0.6-0.2-0.7-0.3s-0.3-0.3-0.3-0.6v-1.7H553.1z M549.7,599v-1.7
			c0-0.3,0.1-0.5,0.3-0.6c0.2-0.1,0.4-0.2,0.7-0.3l2-0.4l0.4,3H549.7z M552.3,599v-15.4h2.5c0.5,0,0.8,0.1,0.9,0.2
			c0.2,0.2,0.3,0.4,0.4,0.7l0.2,1.8c0.6-1,1.4-1.7,2.2-2.2c0.8-0.5,1.8-0.8,2.8-0.8c0.4,0,0.8,0,1.2,0.1s0.7,0.2,0.9,0.4l-0.5,2.8
			c0,0.2-0.1,0.3-0.2,0.4c-0.1,0.1-0.3,0.1-0.5,0.1c-0.1,0-0.4,0-0.8-0.1c-0.4-0.1-0.8-0.1-1.1-0.1c-0.9,0-1.6,0.2-2.2,0.6
			c-0.6,0.4-1.1,1-1.6,1.8v9.6H552.3z M555.8,599l0.4-3l2,0.4c0.3,0.1,0.6,0.2,0.7,0.3c0.2,0.1,0.3,0.4,0.3,0.6v1.7H555.8z"/>
		<path class="st0" d="M574.6,599.2c-1.4,0-2.5-0.3-3.5-1s-1.7-1.6-2.3-2.8c-0.5-1.2-0.8-2.5-0.8-4.1c0-1.5,0.3-2.9,0.9-4.1
			c0.6-1.2,1.5-2.2,2.6-2.9c1.1-0.7,2.5-1.1,4-1.1c1,0,1.8,0.1,2.5,0.4c0.7,0.3,1.3,0.6,1.9,1.1v-8.1h4.4V599h-2.7
			c-0.6,0-0.9-0.2-1.1-0.7l-0.3-1.5c-0.7,0.7-1.5,1.3-2.5,1.7S575.8,599.2,574.6,599.2z M576.1,596.3c0.9,0,1.6-0.2,2.2-0.5
			c0.6-0.3,1.2-0.8,1.7-1.3v-6.9c-0.5-0.5-1-0.8-1.5-1c-0.5-0.2-1.1-0.3-1.8-0.3c-0.9,0-1.6,0.2-2.3,0.6c-0.6,0.4-1.1,1-1.4,1.8
			c-0.3,0.8-0.5,1.7-0.5,2.8c0,1.6,0.3,2.8,0.9,3.7C574.1,595.8,574.9,596.3,576.1,596.3z M580.9,576.7l-0.4,3l-2-0.4
			c-0.3-0.1-0.5-0.2-0.7-0.3c-0.2-0.1-0.3-0.3-0.3-0.6v-1.7H580.9z M583.6,599l0.4-3l2,0.4c0.3,0.1,0.5,0.2,0.7,0.3
			c0.2,0.1,0.3,0.4,0.3,0.6v1.7H583.6z"/>
		<path class="st0" d="M597.2,599.2c-1,0-1.9-0.2-2.7-0.5c-0.8-0.3-1.4-0.8-1.8-1.4c-0.4-0.6-0.7-1.4-0.7-2.3c0-0.6,0.2-1.1,0.5-1.7
			c0.4-0.6,0.9-1.1,1.7-1.5c0.8-0.4,1.9-0.8,3.3-1.1c1.4-0.3,3-0.5,5-0.5v-0.9c0-1-0.2-1.8-0.7-2.3c-0.5-0.5-1.2-0.7-2.1-0.7
			c-0.7,0-1.3,0.1-1.8,0.3c-0.6,0.2-1.1,0.5-1.5,0.7c-0.5,0.2-0.9,0.3-1.4,0.3c-0.3,0-0.6-0.1-0.8-0.2c-0.2-0.1-0.4-0.3-0.5-0.5
			l-0.8-1.2c1-0.8,2.2-1.4,3.4-1.8c1.2-0.4,2.5-0.6,4-0.6c1.4,0,2.6,0.3,3.5,0.8c1,0.5,1.7,1.2,2.3,2.1c0.5,0.9,0.8,1.9,0.8,3.1v9.7
			h-2c-0.4,0-0.8,0-1-0.2c-0.2-0.1-0.4-0.3-0.5-0.7l-0.3-1.1c-0.9,0.7-1.8,1.2-2.7,1.6C599.5,599.1,598.4,599.2,597.2,599.2z
			 M598.6,596.7c0.8,0,1.6-0.1,2.2-0.4c0.6-0.3,1.2-0.7,1.8-1.2v-2.6c-1,0-1.9,0.1-2.7,0.2c-0.8,0.1-1.5,0.3-2,0.5
			c-0.5,0.2-1,0.4-1.2,0.7c-0.3,0.3-0.4,0.6-0.4,1c0,0.7,0.2,1.1,0.6,1.4C597.3,596.5,597.9,596.7,598.6,596.7z M606,599l0.4-3
			l2,0.4c0.3,0.1,0.5,0.2,0.7,0.3c0.2,0.1,0.3,0.4,0.3,0.6v1.7H606z"/>
		<path class="st0" d="M620.4,599.2c-1,0-2-0.1-3-0.2c-1-0.2-1.9-0.3-2.6-0.6v-2.5l2.1-0.1c0.3,0.2,0.8,0.4,1.5,0.6
			c0.7,0.2,1.5,0.3,2.2,0.3c1,0,1.7-0.2,2.2-0.5c0.5-0.3,0.7-0.8,0.7-1.3c0-0.5-0.2-0.9-0.6-1.2c-0.4-0.3-1-0.5-1.6-0.7
			c-0.7-0.2-1.3-0.4-2-0.6c-0.8-0.2-1.5-0.5-2.2-0.9c-0.7-0.3-1.2-0.8-1.6-1.4c-0.4-0.6-0.6-1.2-0.6-2.1c0-0.9,0.3-1.8,0.8-2.5
			s1.3-1.3,2.3-1.7c1-0.4,2.2-0.6,3.5-0.6c1,0,1.9,0.1,2.7,0.3c0.8,0.2,1.7,0.5,2.5,0.8v1.9l-2.2,0.2c-0.4-0.1-0.9-0.2-1.3-0.4
			c-0.5-0.1-1-0.2-1.6-0.2c-0.5,0-1,0.1-1.4,0.2c-0.4,0.1-0.7,0.3-0.9,0.6c-0.2,0.2-0.3,0.5-0.3,0.9c0,0.5,0.2,0.8,0.7,1.1
			c0.5,0.3,1,0.5,1.7,0.7c0.7,0.2,1.3,0.4,1.9,0.6c0.8,0.2,1.5,0.5,2.1,0.8s1.2,0.8,1.6,1.3c0.4,0.5,0.6,1.2,0.6,2
			c0,1-0.3,1.9-0.9,2.6c-0.6,0.8-1.4,1.4-2.4,1.8S621.8,599.2,620.4,599.2z M617.7,597l-3.1-0.7V594h1.6c0.3,0,0.6,0.1,0.7,0.2
			c0.1,0.2,0.3,0.4,0.3,0.6L617.7,597z M623.6,585.6l3.1,0.7v2.3H625c-0.3,0-0.6-0.1-0.7-0.2c-0.2-0.2-0.3-0.4-0.3-0.6L623.6,585.6z
			"/>
		<path class="st0" d="M651.6,599.2c-1.5,0-2.7-0.4-3.6-1.1c-0.8-0.8-1.3-1.8-1.3-3.1v-8.6H645c-0.2,0-0.4-0.1-0.6-0.2
			c-0.2-0.1-0.2-0.3-0.2-0.6v-1.5l2.9-0.4l0.9-4.2c0.1-0.4,0.4-0.6,1-0.6h2.2v4.8h4.6v2.6h-4.6v8.3c0,0.5,0.1,0.9,0.4,1.1
			c0.3,0.3,0.6,0.4,1.1,0.4c0.3,0,0.5,0,0.7-0.1c0.2-0.1,0.4-0.2,0.6-0.3c0.2-0.1,0.3-0.1,0.5-0.1c0.2,0,0.4,0.1,0.5,0.3l1.3,1.8
			c-0.6,0.4-1.3,0.8-2.1,1C653.3,599.1,652.4,599.2,651.6,599.2z"/>
		<path class="st0" d="M663.9,583.6l-0.4,3l-2-0.4c-0.3-0.1-0.5-0.2-0.7-0.3s-0.3-0.3-0.3-0.6v-1.7H663.9z M669,599.2
			c-1.3,0-2.4-0.3-3.3-0.8c-0.9-0.5-1.6-1.2-2-2.1c-0.5-0.9-0.7-1.9-0.7-3v-9.8h4.4v9.8c0,0.9,0.2,1.7,0.7,2.2
			c0.5,0.5,1.2,0.8,2.2,0.8c0.7,0,1.4-0.1,2-0.4c0.6-0.3,1.2-0.7,1.8-1.2v-11.2h4.3V599h-2.6c-0.6,0-1-0.2-1.1-0.7l-0.3-1.2
			c-0.7,0.6-1.5,1.1-2.4,1.5C671.2,599,670.2,599.2,669,599.2z M675,583.6l-0.4,3l-2-0.4c-0.3-0.1-0.6-0.2-0.7-0.3s-0.3-0.3-0.3-0.6
			v-1.7H675z M677.6,599l0.4-3l2,0.4c0.3,0.1,0.6,0.2,0.7,0.3c0.2,0.1,0.3,0.4,0.3,0.6v1.7H677.6z"/>
		<path class="st0" d="M704.8,599.2c-1.5,0-2.7-0.4-3.6-1.1c-0.8-0.8-1.3-1.8-1.3-3.1v-8.6h-1.8c-0.2,0-0.4-0.1-0.6-0.2
			c-0.2-0.1-0.2-0.3-0.2-0.6v-1.5l2.9-0.4l0.9-4.2c0.1-0.4,0.4-0.6,1-0.6h2.2v4.8h4.6v2.6h-4.6v8.3c0,0.5,0.1,0.9,0.4,1.1
			c0.3,0.3,0.6,0.4,1.1,0.4c0.3,0,0.5,0,0.7-0.1c0.2-0.1,0.4-0.2,0.6-0.3c0.2-0.1,0.3-0.1,0.5-0.1c0.2,0,0.4,0.1,0.5,0.3l1.3,1.8
			c-0.6,0.4-1.3,0.8-2.1,1C706.5,599.1,705.6,599.2,704.8,599.2z"/>
		<path class="st0" d="M717.9,583.6l-0.4,3l-2-0.4c-0.3-0.1-0.6-0.2-0.7-0.3s-0.3-0.3-0.3-0.6v-1.7H717.9z M714.5,599v-1.7
			c0-0.3,0.1-0.5,0.3-0.6c0.2-0.1,0.4-0.2,0.7-0.3l2-0.4l0.4,3H714.5z M719.3,581.4c-0.7,0-1.4-0.2-1.9-0.7c-0.5-0.5-0.8-1-0.8-1.6
			c0-0.7,0.3-1.2,0.8-1.7s1.2-0.7,1.9-0.7c0.8,0,1.4,0.2,2,0.7s0.8,1,0.8,1.7c0,0.6-0.3,1.2-0.8,1.6
			C720.7,581.2,720,581.4,719.3,581.4z M717,599v-15.4h4.3V599H717z M720.5,599l0.4-3l2,0.4c0.3,0.1,0.6,0.2,0.7,0.3
			c0.2,0.1,0.3,0.4,0.3,0.6v1.7H720.5z"/>
		<path class="st0" d="M737.5,599.2c-1.8,0-3.3-0.3-4.6-1c-1.3-0.7-2.3-1.7-3-2.9s-1.1-2.7-1.1-4.3c0-1.4,0.4-2.7,1.1-3.9
			c0.7-1.2,1.7-2.1,3-2.7c1.3-0.7,2.8-1,4.5-1c1.5,0,2.9,0.3,4,0.9c1.2,0.6,2,1.4,2.7,2.4c0.6,1,0.9,2.3,0.9,3.7
			c0,0.5-0.1,0.9-0.2,1.1c-0.1,0.2-0.4,0.3-0.8,0.3h-10.8c0,0.1,0,0.1,0,0.2c0,0.1,0,0.1,0,0.2c0.2,1.4,0.7,2.5,1.5,3.2s1.9,1,3.2,1
			c0.6,0,1.2-0.1,1.9-0.3c0.6-0.2,1.2-0.4,1.7-0.7s1-0.3,1.3-0.3s0.6,0.1,0.8,0.3l1.3,1.4c-0.6,0.6-1.3,1.1-2.1,1.5
			s-1.7,0.6-2.5,0.8S738.4,599.2,737.5,599.2z M733.3,589.5h7.9c0-1-0.3-1.8-0.9-2.5c-0.6-0.7-1.5-1-2.8-1s-2.2,0.3-2.9,0.9
			C733.9,587.5,733.4,588.4,733.3,589.5z"/>
		<path class="st0" d="M753.7,583.6l-0.4,3l-2-0.4c-0.3-0.1-0.6-0.2-0.7-0.3s-0.3-0.3-0.3-0.6v-1.7H753.7z M750.3,599v-1.7
			c0-0.3,0.1-0.5,0.3-0.6c0.2-0.1,0.4-0.2,0.7-0.3l2-0.4l0.4,3H750.3z M752.8,599v-15.4h2.6c0.6,0,0.9,0.2,1.1,0.7l0.3,1.1
			c0.6-0.6,1.3-1.1,2.1-1.5c0.8-0.4,1.6-0.6,2.7-0.6c1.1,0,2,0.3,2.7,0.8c0.7,0.5,1.2,1.2,1.6,2.1c0.5-1,1.3-1.7,2.4-2.2
			c1-0.5,2.1-0.7,3.3-0.7c2,0,3.5,0.5,4.5,1.6c1,1,1.6,2.5,1.6,4.3v9.8h-4.3v-9.8c0-1-0.2-1.7-0.7-2.2c-0.5-0.5-1.2-0.8-2.2-0.8
			c-0.8,0-1.6,0.3-2.1,0.8s-0.9,1.2-0.9,2.2v9.8h-4.4v-9.8c0-1-0.2-1.8-0.7-2.2c-0.5-0.5-1.2-0.7-2-0.7c-0.6,0-1.2,0.1-1.7,0.4
			c-0.5,0.3-1,0.6-1.5,1.1V599H752.8z M756.3,599l0.4-3l2,0.4c0.3,0.1,0.6,0.2,0.7,0.3c0.2,0.1,0.3,0.4,0.3,0.6v1.7H756.3z
			 M766.6,599l0.4-3l2,0.4c0.3,0.1,0.5,0.2,0.7,0.3c0.2,0.1,0.3,0.4,0.3,0.6v1.7H766.6z M776.9,599l0.4-3l2,0.4
			c0.3,0.1,0.6,0.2,0.7,0.3c0.2,0.1,0.3,0.4,0.3,0.6v1.7H776.9z"/>
		<path class="st0" d="M788.6,583.6l-0.4,3l-2-0.4c-0.3-0.1-0.6-0.2-0.7-0.3s-0.3-0.3-0.3-0.6v-1.7H788.6z M785.2,604v-1.7
			c0-0.3,0.1-0.5,0.3-0.6s0.4-0.2,0.7-0.3l2-0.4l0.4,3H785.2z M787.8,604v-20.5h2.6c0.6,0,1,0.2,1.1,0.7l0.3,1.4
			c0.7-0.7,1.6-1.3,2.5-1.7c0.9-0.4,2-0.7,3.2-0.7c1.4,0,2.6,0.3,3.5,1c1,0.7,1.7,1.6,2.2,2.8c0.5,1.2,0.8,2.6,0.8,4.1
			c0,1.5-0.3,2.9-0.9,4.1c-0.6,1.2-1.5,2.2-2.6,2.9c-1.1,0.7-2.5,1.1-4.1,1.1c-1,0-1.8-0.1-2.5-0.4c-0.7-0.3-1.3-0.6-1.9-1.1v6.3
			H787.8z M791.3,604l0.4-3l2,0.4c0.3,0.1,0.6,0.2,0.7,0.3c0.2,0.1,0.3,0.3,0.3,0.6v1.7H791.3z M795.5,596.4c0.9,0,1.6-0.2,2.3-0.6
			c0.6-0.4,1.1-1,1.4-1.8c0.3-0.8,0.5-1.7,0.5-2.8c0-1.6-0.3-2.8-0.8-3.7c-0.6-0.8-1.5-1.2-2.7-1.2c-0.9,0-1.6,0.2-2.2,0.5
			c-0.6,0.3-1.2,0.8-1.7,1.4v6.9c0.5,0.5,1,0.9,1.6,1.1S794.9,596.4,795.5,596.4z"/>
		<path class="st0" d="M818.1,583.3c1.8,0,3.3,0.3,4.6,1c1.3,0.6,2.3,1.6,3,2.8c0.7,1.2,1.1,2.6,1.1,4.2c0,1.6-0.4,3-1.1,4.2
			c-0.7,1.2-1.7,2.1-3,2.8c-1.3,0.7-2.9,1-4.6,1c-1.8,0-3.3-0.3-4.6-1c-1.3-0.7-2.3-1.6-3.1-2.8c-0.7-1.2-1.1-2.6-1.1-4.2
			c0-1.6,0.4-3,1.1-4.2c0.7-1.2,1.8-2.1,3.1-2.8C814.8,583.7,816.3,583.3,818.1,583.3z M818.1,596.4c1.4,0,2.5-0.4,3.2-1.3
			c0.7-0.9,1-2.1,1-3.8c0-1.1-0.1-2.1-0.4-2.8s-0.8-1.3-1.4-1.7s-1.4-0.6-2.4-0.6c-1,0-1.8,0.2-2.4,0.6c-0.6,0.4-1.1,1-1.4,1.7
			s-0.5,1.7-0.5,2.8c0,1.6,0.3,2.9,1,3.8C815.5,595.9,816.6,596.4,818.1,596.4z"/>
	</g>
</g>
<g id="Capa_1">
	<g id="Capa_1_1_">
	</g>
	<g>
		<path class="st1" d="M88,590.2c-4.5,1-9.1,1.5-14,1.5c-32,0-58.1-23.2-58.1-51.8c0-14.4,6.6-27.5,17.3-36.9
			c0.1-0.1,0.1-0.1,0.2-0.2l-2.8-4.4c-0.3,0.3-0.6,0.5-1,0.8c-11.7,10.4-19,24.8-19,40.7c0,31.4,28.4,57,63.3,57
			c5.8,0,11.5-0.7,16.9-2.1L88,590.2z"/>
		<path class="st2" d="M233.2,609.2H56.1c-5.4,0-9.8-4.4-9.8-9.8v-26.7c0-5.4,4.4-9.8,9.8-9.8h177.1c5.4,0,9.8,4.4,9.8,9.8v26.7
			C243,604.8,238.6,609.2,233.2,609.2z"/>
		<circle class="st0" cx="144.7" cy="489.2" r="98.4"/>
		<circle class="st3" cx="144.7" cy="489.2" r="73.7"/>
		<circle class="st2" cx="144.7" cy="489.2" r="12"/>
		<circle class="st2" cx="31.1" cy="501.1" r="7"/>
		<g>
			<path class="st4" d="M253.6,562.4V425.8h39.3c38.4,58.6,53.7,79.9,62.3,96.1h0.4c-1.3-14.3-1.1-39.9-1.1-62.4v-33.7h30.4v136.6
				h-37c-12.9-20.3-56.6-88.2-64.7-103.9h-0.4c1.1,16.9,1.1,36.3,1.1,60.6v43.3L253.6,562.4L253.6,562.4z"/>
			<path class="st4" d="M506.4,452.2h-48.1v-26.4h129.2v26.4h-47.9v110.2h-33.2L506.4,452.2L506.4,452.2z"/>
			<path class="st4" d="M641.9,425.8v136.6h-33.2V425.8H641.9z"/>
			<path class="st4" d="M803.8,510.1c0-23.5,0.2-48.1,0.9-63.2h-0.2c-6.8,25.2-19.6,65.3-35.7,115.5h-29.2
				c-12.5-44-26.9-89.6-34.1-115.5h-0.2c1,15.9,2.3,42.4,2.3,65.7v49.8h-29.9V425.8h47.9c13.7,42.3,26.3,79.4,30.4,98.1h0.2
				c5.8-21.5,18.1-57.4,31.4-98.1h48.1v136.6h-32L803.8,510.1L803.8,510.1z"/>
			<path class="st4" d="M980.9,504.8h-76.2v31.1h84.8l-3.8,26.5H871.5V425.8H985v26.5h-80.4v25.9h76.3V504.8z"/>
		</g>
	</g>
</g>
</svg>
